<svg id="Capa_1" enable-background="new 0 0 496.587 496.587" height="512" viewBox="0 0 496.587 496.587" width="512" xmlns="http://www.w3.org/2000/svg"><g><g id="XMLID_1_"><g><g><path d="m496.587 465.723c0 7.88-3 15.78-9.04 21.82-12.52 12.52-32.98 11.97-44.81-1.21l-117.72-131.19-74.25-80.65 30.13-19.6 74.24 70.13 131.2 117.72c6.81 6.11 10.25 14.54 10.25 22.98z" fill="#efedee"/></g></g></g><path d="m355.137 325.023-74.24-70.13-30.13 19.6 74.25 80.65 13.391 14.923c5.751-4.7 11.302-9.711 16.625-15.033 5.321-5.321 10.33-10.87 15.029-16.619z" fill="#e4e1e5"/><circle cx="199.689" cy="199.689" fill="#f8f7f8" r="199.689"/><path d="m80.222 204.165c0-98.149 69.257-180.126 161.568-199.718-13.576-2.915-27.654-4.447-42.101-4.447-110.285 0-199.689 89.404-199.689 199.689s89.404 199.689 199.689 199.689c7.171 0 14.237-.376 21.213-1.113-81.679-26.695-140.68-103.505-140.68-194.1z" fill="#efedee"/><ellipse cx="199.689" cy="199.689" fill="#badafb" rx="163.689" ry="163.689" transform="matrix(.707 -.707 .707 .707 -82.714 199.689)"/><path d="m162.703 40.215c-72.504 16.81-126.703 81.931-126.703 159.474 0 71.492 46.075 132.417 110.087 154.665-40.496-37.308-65.864-90.784-65.864-150.189-.001-67.159 32.43-126.74 82.48-163.95z" fill="#97c9f9"/><g id="XMLID_4_"><g><path d="m417.667 381.123-36.54 36.54-22.35-24.9 33.98-33.99z" fill="#e4e1e5"/></g></g></g></svg>