<svg id="Capa_1" enable-background="new 0 0 512 512" height="512" viewBox="0 0 512 512" width="512" xmlns="http://www.w3.org/2000/svg"><g><g><path clip-rule="evenodd" d="m1.485 72.96c-5.026 26.514 2.704 55.023 23.159 75.436 25.628 25.576 63.981 31.207 95.193 16.894l33.916 33.847h45.172l-1.763-47.045-32.035-31.999c14.342-31.148 8.699-69.424-16.928-94.999-20.456-20.413-49.022-28.127-75.591-23.112-27.891 5.25-6.789 19.915-3.791 22.907l35.885 35.812c12.549 12.524 13.078 32.673 1.558 45.843-13.196 11.497-33.387 10.969-45.936-1.554l-35.885-35.813c-2.998-2.992-17.693-24.051-22.954 3.783z" fill="#c1eaf4" fill-rule="evenodd"/></g><g><path clip-rule="evenodd" d="m219.028 264.25 18.662 55.023 83.849 47.309 25.334 25.282c-14.342 31.148-8.699 69.424 16.928 94.999 20.455 20.414 49.022 28.127 75.59 23.112 27.891-5.25 6.789-19.915 3.791-22.907l-35.885-35.812c-12.549-12.524-13.078-32.673-1.558-45.843 13.196-11.497 33.387-10.969 45.936 1.554l35.885 35.812c2.998 2.992 17.693 24.051 22.953-3.784 5.026-26.514-2.704-55.023-23.159-75.436-25.628-25.576-63.981-31.207-95.193-16.894l-26.098-26.045c-8.2 2.17-17.281.059-23.659-6.306-9.522-9.503-9.522-25.048 0-34.551l15.371-15.369c-10.874 10.852-28.684 10.852-39.559 0-8.788-8.77-10.492-22.056-5.055-32.585-9.934 12.905-57.751-33.817-59.808-35.87-20.747-16.629-77.352 21.5-34.325 68.311z" fill="#c1eaf4" fill-rule="evenodd"/></g><g><path clip-rule="evenodd" d="m342.406 279.765c-9.522 9.503-9.522 25.048 0 34.551 6.378 6.365 15.459 8.476 23.659 6.306 4.026-1.056 7.818-3.168 10.962-6.306l37.031-36.956c9.522-9.503 9.522-25.048 0-34.551s-25.099-9.503-34.65 0l-.558.557-21.072 21.029z" fill="#fed1a3" fill-rule="evenodd"/></g><g><path clip-rule="evenodd" d="m286.624 177.492-8.053 8.036-5.026 7.303c-11.227 16.249 15.488 48.424 40.528 37.366l22.513-5.749 3.262-21.117 7.406-7.391c10.874-10.852 10.874-28.626 0-39.478s-28.684-10.852-39.559 0l-14.577 14.548z" fill="#fed1a3" fill-rule="evenodd"/></g><g><path clip-rule="evenodd" d="m268.138 116.985-29.125 29.066c-20.132 20.091 11.051 53.087 39.559 39.478l23.394-6.98 5.731-22.085c10.874-10.852 10.874-28.626 0-39.478-10.875-10.854-28.685-10.854-39.559-.001z" fill="#fed1a3" fill-rule="evenodd"/></g><g><path clip-rule="evenodd" d="m148.081 227.206c1.323 21.821-8.846 43.877-39 73.94l-32.74 32.673 18.104 71.946 90.726 36.662 52.49-52.383c19.662-19.622 23.482-15.398 46.7-12.084 10.404 1.496 25.246-4.048 37.178-11.38l-102.511-102.33c12.549-19.798 13.813-42.616 2.057-56.9-.147-.176-.029-.264.088-.147 5.261 5.25 17.781 17.745 18.192 18.155 17.428 16.806 54.871 31.06 73.798 6.453.294-.528.588-1.085.911-1.613 2.851-7.655-10.757-19.944-24.717-33.905l-10.786-10.764-39.559-39.478-7.289-7.274c-5.819-5.807-15.4-5.807-21.249.029l-13.314 13.286-34.268 34.199c-3.762 3.754-6.818 8.124-9.14 12.846-4.348 8.799-6.229 18.771-5.671 28.069z" fill="#ffe5c1" fill-rule="evenodd"/></g><g><path clip-rule="evenodd" d="m128.155 41.783c24.364 24.314 27.362 56.841 15.577 87.11-2.116 5.367.97 7.538 5.114 11.673l28.273 28.186.118 3.226 19.926-19.886-32.035-31.999c14.342-31.148 8.699-69.424-16.928-94.999-20.457-20.413-49.023-28.127-75.592-23.112-17.193 3.226-15.782 10.06-11.433 15.515 23.983-2.052 48.699 6.072 66.98 24.286z" fill="#99cfe0" fill-rule="evenodd"/></g><g><path clip-rule="evenodd" d="m264.317 171.303 14.254 14.225 8.053-8.036 6.495-6.482 14.577-14.548c10.874-10.852 10.874-28.626 0-39.478-4.467-4.429-10.051-7.039-15.87-7.86 8.582 10.94 7.818 26.895-2.234 36.956l-14.577 14.518z" fill="#ffbc85" fill-rule="evenodd"/></g><g><path clip-rule="evenodd" d="m328.328 183.769-25.804 25.752c7.994 8.359 13.46 15.574 11.55 20.678 1.146-1.877 2.528-3.666 4.144-5.279l29.037-28.978c10.874-10.852 10.874-28.626 0-39.478-4.32-4.282-9.728-6.893-15.341-7.772 7.112 10.791 5.936 25.574-3.586 35.077z" fill="#ffbc85" fill-rule="evenodd"/></g><g><path clip-rule="evenodd" d="m337.233 306.719c1.176 2.757 2.91 5.338 5.173 7.596 6.378 6.365 15.459 8.476 23.659 6.306 4.026-1.056 7.818-3.168 10.962-6.306l37.031-36.956c9.522-9.503 9.522-25.048 0-34.551-3.439-3.432-7.641-5.631-12.079-6.57 3.821 8.916 2.116 19.71-5.173 26.954l-37.031 36.956c-3.115 3.138-6.936 5.25-10.962 6.306-3.792.998-7.759 1.086-11.58.265z" fill="#ffbc85" fill-rule="evenodd"/></g><g><path clip-rule="evenodd" d="m394.661 371.098c55.282-15.222 93.4 14.313 115.854 67.899 5.026-26.514-2.704-55.023-23.159-75.436-25.628-25.576-63.981-31.207-95.193-16.894l-26.098-26.045c-8.2 2.17-17.281.059-23.659-6.306-2.263-2.258-3.997-4.839-5.173-7.596-3.821-8.916-2.116-19.71 5.173-26.954l15.371-15.369c-10.874 10.852-28.684 10.852-39.559 0-1.47-1.466-2.733-3.021-3.791-4.693-5.378-8.418-5.79-19.123-1.264-27.893-18.927 24.608-90.461-23.992-73.798-6.453l128.815 135.357c13.872 14.577 8.994 15.193 26.481 10.383z" fill="#99cfe0" fill-rule="evenodd"/></g><g><path clip-rule="evenodd" d="m12.036 397.994 108.83 108.608c2.733 2.728 6.172 4.37 9.728 4.898h5.437c3.586-.528 6.995-2.17 9.728-4.898l39.412-39.331c6.848-6.834 6.848-18.009 0-24.842l-108.83-108.609c-6.848-6.834-18.045-6.834-24.893 0l-39.412 39.331c-6.848 6.834-6.848 18.009 0 24.843z" fill="#6bd9e7" fill-rule="evenodd"/></g><g><path clip-rule="evenodd" d="m89.566 475.366 31.3 31.236c2.733 2.728 6.172 4.37 9.728 4.898h5.437c3.586-.528 6.995-2.17 9.728-4.898l39.412-39.331c6.848-6.834 6.848-18.009 0-24.842l-31.329-31.266c6.848 6.834 6.848 18.009 0 24.842l-39.412 39.331c-2.733 2.728-6.142 4.37-9.699 4.927h-5.466c-3.556-.557-6.966-2.199-9.699-4.897z" fill="#00c7dd" fill-rule="evenodd"/></g><g><path clip-rule="evenodd" d="m213.503 365.965-52.49 52.383 24.158 24.08 52.49-52.383c19.662-19.622 23.482-15.398 46.7-12.084 10.404 1.496 25.246-4.048 37.178-11.38l-24.129-24.109c-3.027 1.848-6.231 3.608-9.493 5.133-9.669 4.546-19.926 7.362-27.714 6.247-23.189-3.314-27.039-7.508-46.7 12.113z" fill="#fed1a3" fill-rule="evenodd"/></g><g><path clip-rule="evenodd" d="m305.786 239.202c-5.437 10.5-3.762 23.786 5.055 32.556 10.874 10.881 28.684 10.881 39.559 0l20.161-6.834 8.846-22.115c10.904-10.852 10.904-28.626 0-39.478-10.874-10.852-28.684-10.852-39.559 0l-29.008 28.949c-1.646 1.642-3.027 3.402-4.173 5.309-.205.557-.499 1.085-.881 1.613z" fill="#fed1a3" fill-rule="evenodd"/></g><g><path clip-rule="evenodd" d="m362.273 195.295c6.907 10.793 5.643 25.37-3.791 34.785l-29.008 28.978c-6.113 6.071-14.401 8.77-22.424 8.007 1.058 1.672 2.322 3.256 3.791 4.693 10.874 10.881 28.684 10.881 39.559 0l29.008-28.949c10.904-10.852 10.904-28.626 0-39.478-4.762-4.78-10.846-7.449-17.135-8.036z" fill="#ffbc85" fill-rule="evenodd"/></g><path d="m302.524 209.52c-7.083 6.042-15.812 8.271-24.834 7.948-.382-.029-.735-.029-1.117-.059-16.017-.968-32.828-9.855-42.909-19.592-.118-.117-1.646-1.643-3.791-3.784-2.586-2.552-2.939-2.962-6.083-6.071-1.91-2.376-5.156-.116-6.163.763-2.833 2.474-6.338 8.264-5.633 12.693-1.473 2.904-.999 6.542 1.43 8.966 5.274 5.263 8.061 12.635 8.061 21.319 0 13.661-6.98 28.782-18.671 40.449-3.02 3.015-3.025 7.907-.012 10.929 1.51 1.513 3.49 2.27 5.47 2.27 1.975 0 3.95-.752 5.458-2.257 14.749-14.72 23.208-33.45 23.208-51.389 0-3.351-.302-6.582-.883-9.679 1.901 1.913 3.198 3.219 3.311 3.332 17.428 16.806 54.87 31.06 73.798 6.453.294-.528.588-1.085.911-1.613 1.909-5.104-3.557-12.319-11.551-20.678z" fill="#fed1a3"/></g></svg>